<?xml version="1.0" encoding="utf-8"?>
<!-- Generator: Adobe Illustrator 17.1.0, SVG Export Plug-In . SVG Version: 6.00 Build 0)  -->
<!DOCTYPE svg PUBLIC "-//W3C//DTD SVG 1.1//EN" "http://www.w3.org/Graphics/SVG/1.1/DTD/svg11.dtd">
<svg version="1.1" xmlns="http://www.w3.org/2000/svg" xmlns:xlink="http://www.w3.org/1999/xlink" x="0px" y="0px"
	 viewBox="0 0 250 250" enable-background="new 0 0 250 250" xml:space="preserve">
<g id="Layer_1">
	<g>
		<polyline fill="#F7F6D1" stroke="#D7D6BE" stroke-width="8" stroke-miterlimit="10" points="194.365,224.594 24.475,230.713 
			17.276,30.843 217.147,23.644 223.266,193.534 		"/>
		<line fill="none" stroke="#D7D6BE" stroke-width="8" stroke-miterlimit="10" x1="52.622" y1="67.594" x2="184.537" y2="62.843"/>
		
			<line fill="none" stroke="#D7D6BE" stroke-width="8" stroke-miterlimit="10" x1="57.085" y1="191.514" x2="124.042" y2="189.103"/>
		<line fill="none" stroke="#D7D6BE" stroke-width="8" stroke-miterlimit="10" x1="53.738" y1="98.574" x2="185.652" y2="93.823"/>
		
			<line fill="none" stroke="#D7D6BE" stroke-width="8" stroke-miterlimit="10" x1="54.854" y1="129.554" x2="186.768" y2="124.803"/>
		
			<line fill="none" stroke="#D7D6BE" stroke-width="8" stroke-miterlimit="10" x1="55.969" y1="160.534" x2="187.884" y2="155.783"/>
		<polyline fill="#D7D6BE" points="194.509,228.592 193.285,194.614 227.263,193.39 		"/>
	</g>
	<g>
		<polyline fill="#F7F6D1" stroke="#D7D6BE" stroke-width="8" stroke-miterlimit="10" points="201,223 31,223 31,23 231,23 231,193 
					"/>
		<line fill="none" stroke="#D7D6BE" stroke-width="8" stroke-miterlimit="10" x1="65" y1="61" x2="197" y2="61"/>
		<line fill="none" stroke="#D7D6BE" stroke-width="8" stroke-miterlimit="10" x1="65" y1="185" x2="132" y2="185"/>
		<line fill="none" stroke="#D7D6BE" stroke-width="8" stroke-miterlimit="10" x1="65" y1="92" x2="197" y2="92"/>
		<line fill="none" stroke="#D7D6BE" stroke-width="8" stroke-miterlimit="10" x1="65" y1="123" x2="197" y2="123"/>
		<line fill="none" stroke="#D7D6BE" stroke-width="8" stroke-miterlimit="10" x1="65" y1="154" x2="197" y2="154"/>
		<polyline fill="#D7D6BE" points="201,227 201,193 235,193 		"/>
	</g>
</g>
<g id="Layer_2">
</g>
</svg>
