<?xml version="1.0" encoding="utf-8"?>
<!-- Generator: Adobe Illustrator 17.1.0, SVG Export Plug-In . SVG Version: 6.00 Build 0)  -->
<!DOCTYPE svg PUBLIC "-//W3C//DTD SVG 1.1//EN" "http://www.w3.org/Graphics/SVG/1.1/DTD/svg11.dtd">
<svg version="1.1" xmlns="http://www.w3.org/2000/svg" xmlns:xlink="http://www.w3.org/1999/xlink" x="0px" y="0px"
	 viewBox="0 0 250 250" enable-background="new 0 0 250 250" xml:space="preserve">
<g id="Layer_1">
</g>
<g id="Layer_2">
	<g>
		<path fill="#FF7B00" d="M214,125c0,13.807-11.193,25-25,25H59c-13.807,0-25-11.193-25-25l0,0c0-13.807,11.193-25,25-25h130
			C202.807,100,214,111.193,214,125L214,125z"/>
		<text transform="matrix(1 0 0 1 73.2718 133.5256)" fill="#FFFFFF" font-family="'OpenSans'" font-size="29.5625">physics</text>
	</g>
	<path fill="#71C2C5" d="M223,58c0,5.523-4.477,10-10,10h-40c-5.523,0-10-4.477-10-10l0,0c0-5.523,4.477-10,10-10h40
		C218.523,48,223,52.477,223,58L223,58z"/>
	<path fill="#FF513D" d="M188,51c0,5.523-4.477,10-10,10h-40c-5.523,0-10-4.477-10-10l0,0c0-5.523,4.477-10,10-10h40
		C183.523,41,188,45.477,188,51L188,51z"/>
	<path fill="#FFCA3D" d="M229,38c0,5.523-4.477,10-10,10h-40c-5.523,0-10-4.477-10-10l0,0c0-5.523,4.477-10,10-10h40
		C224.523,28,229,32.477,229,38L229,38z"/>
	<path fill="#30D37F" d="M119,195c0,5.523-4.477,10-10,10H69c-5.523,0-10-4.477-10-10l0,0c0-5.523,4.477-10,10-10h40
		C114.523,185,119,189.477,119,195L119,195z"/>
	<path fill="#B3FF55" d="M157,205c0,5.523-4.477,10-10,10h-40c-5.523,0-10-4.477-10-10l0,0c0-5.523,4.477-10,10-10h40
		C152.523,195,157,199.477,157,205L157,205z"/>
	<path fill="#CCCCCC" d="M109,45c0,5.523-4.477,10-10,10H59c-5.523,0-10-4.477-10-10l0,0c0-5.523,4.477-10,10-10h40
		C104.523,35,109,39.477,109,45L109,45z"/>
	<path fill="#00FFBE" d="M85,58c0,5.523-4.477,10-10,10H35c-5.523,0-10-4.477-10-10l0,0c0-5.523,4.477-10,10-10h40
		C80.523,48,85,52.477,85,58L85,58z"/>
	<path fill="#FF51C5" d="M201,194c0,5.523-4.477,10-10,10h-40c-5.523,0-10-4.477-10-10l0,0c0-5.523,4.477-10,10-10h40
		C196.523,184,201,188.477,201,194L201,194z"/>
</g>
</svg>
