<?xml version="1.0" encoding="utf-8"?>
<!-- Generator: Adobe Illustrator 17.1.0, SVG Export Plug-In . SVG Version: 6.00 Build 0)  -->
<!DOCTYPE svg PUBLIC "-//W3C//DTD SVG 1.1//EN" "http://www.w3.org/Graphics/SVG/1.1/DTD/svg11.dtd">
<svg version="1.1" xmlns="http://www.w3.org/2000/svg" xmlns:xlink="http://www.w3.org/1999/xlink" x="0px" y="0px"
	 viewBox="0 0 250 250" enable-background="new 0 0 250 250" xml:space="preserve">
<g id="Layer_1">
	<g>
		<path fill="#F2F2F2" stroke="#4D4D4D" stroke-width="4" stroke-miterlimit="10" d="M223,216c0,5.523-4.477,10-10,10H33
			c-5.523,0-10-4.477-10-10V36c0-5.523,4.477-10,10-10h180c5.523,0,10,4.477,10,10V216z"/>
		<g>
			<line fill="none" stroke="#999999" stroke-width="8" stroke-miterlimit="10" x1="83" y1="124" x2="179" y2="124"/>
			<line fill="none" stroke="#999999" stroke-width="8" stroke-miterlimit="10" x1="74" y1="124" x2="66" y2="124"/>
		</g>
		<g>
			<line fill="none" stroke="#999999" stroke-width="8" stroke-miterlimit="10" x1="83" y1="148" x2="129" y2="148"/>
			<line fill="none" stroke="#999999" stroke-width="8" stroke-miterlimit="10" x1="74" y1="148" x2="66" y2="148"/>
		</g>
		<g>
			<line fill="none" stroke="#999999" stroke-width="8" stroke-miterlimit="10" x1="83" y1="173" x2="168" y2="173"/>
			<line fill="none" stroke="#999999" stroke-width="8" stroke-miterlimit="10" x1="74" y1="173" x2="66" y2="173"/>
		</g>
		<g>
			<line fill="none" stroke="#999999" stroke-width="8" stroke-miterlimit="10" x1="83" y1="197" x2="154" y2="197"/>
			<line fill="none" stroke="#999999" stroke-width="8" stroke-miterlimit="10" x1="74" y1="197" x2="66" y2="197"/>
		</g>
		<path id="book-17-icon" fill="#999999" d="M162.373,50.479v42.059l-2.682,0.431v-42.49V41.97
			c-14.407,0.44-28.046,2.756-37.282,8.505c-9.235-5.749-22.874-8.065-37.282-8.505v8.509v42.49l-2.682-0.431V50.479h-4.418v47.195
			h33.5c5.469,0,6.069,3.356,10.882,3.356c4.822,0,5.403-3.356,10.882-3.356h33.511V50.479H162.373z M118.748,92.38
			c-7.198-2.856-15.924-4.694-26.513-5.49V49.713c8.696,0.73,19.101,2.497,26.513,7.108V92.38z M152.583,86.891
			c-10.589,0.796-19.315,2.634-26.513,5.49V56.821c7.412-4.611,17.816-6.379,26.513-7.108V86.891z"/>
	</g>
</g>
<g id="Layer_2">
</g>
</svg>
